<svg width="270" height="324" viewBox="0 0 270 324" fill="none" xmlns="http://www.w3.org/2000/svg">
<path fill-rule="evenodd" clip-rule="evenodd" d="M245.913 194.942C248.077 193.812 250.19 192.584 252.27 191.306C253.734 190.429 252.438 188.222 250.936 189.019C250.168 189.427 249.403 189.84 248.635 190.245C249.239 189.724 249.799 189.158 250.301 188.54L250.267 188.505C252.203 186.77 249.716 183.496 247.514 184.921C245.572 186.329 243.613 187.766 241.384 188.693C236.767 190.652 231.675 190.976 226.72 191.032C224.907 190.896 223.175 191.21 221.415 191.56C222.105 188.792 223.831 186.702 224.747 184.02C225.423 181.313 221.517 179.47 220.133 182.072C219.793 182.711 219.469 183.357 219.152 184.006C216.16 186.729 211.164 186.489 208.147 189.412C206.428 190.938 205.587 193.009 205.255 195.087C205.029 196.499 205.38 197.913 204.527 199.163C200.403 204.998 193.887 214.221 190.578 220.643C188.235 205.383 181.979 186.51 175.516 172.557C173.379 168.095 170.934 163.735 167.725 159.953C168.088 158.691 166.804 156.452 165.988 157.141C163.474 154.07 159.031 153.275 155.459 151.748C150.636 149.685 146.635 145.397 144.668 140.523C142.141 131.242 135.92 130.063 127.292 130.473C119.035 130.463 112.925 133.996 111.124 142.405C107.463 148.787 98.8213 147.732 92.6039 149.421C88.0473 150.463 83.6252 152.073 79.4227 154.117C74.7475 149.68 58.0035 168.299 56.4816 173.091C57.3775 173.264 58.268 173.474 59.1505 173.728C59.9364 173.956 59.6064 175.143 58.8137 174.953C57.8273 174.716 56.8346 174.553 55.8372 174.44C55.8068 174.535 55.7801 174.63 55.7603 174.724C55.6483 174.716 55.5366 174.707 55.4246 174.699C55.6728 174.828 55.9118 174.978 56.1446 175.172C56.7074 175.639 55.9747 176.542 55.3766 176.169C54.8132 175.747 54.0752 175.814 53.3994 175.672C53.3592 177.063 48.4001 175.507 47.6299 175.047C44.2063 174.618 40.6842 175.078 37.4882 173.426C33.2356 172.53 28.9511 171.539 24.7462 170.398C23.633 170.833 22.5868 172.386 23.471 173.526C23.9683 174.045 23.329 174.892 22.7028 174.523C20.6026 173.286 18.9784 171.356 17.6013 169.276C16.9532 168.622 15.8026 168.763 14.9318 168.491C14.8154 168.701 14.7467 168.934 14.7477 169.173C11.0537 169.781 13.6889 173.817 15.5459 175.075C14.5608 175.717 14.5234 176.973 14.6096 178.023C14.4008 178.397 14.3311 178.86 14.5128 179.279C15.2075 180.88 16.7098 182.229 17.8521 183.526C19.1134 184.959 20.238 186.4 21.7726 187.561C27.6222 192.022 34.6813 194.516 41.9231 195.491C44.4944 195.886 48.1931 196.491 49.7852 198.666C49.3946 201.247 48.6773 203.723 48.0266 206.24C47.1167 209.582 47.1786 213.08 47.1666 216.486C47.0394 216.384 46.7951 216.405 46.7588 216.6C46.5471 218.012 46.3897 219.456 45.5318 220.643C44.7797 222.849 44.2792 225.202 43.998 227.52C42.8715 238.51 42.6025 249.823 45.1424 260.641C46.1225 264.654 47.7165 268.468 49.8883 271.98C50.5358 273.028 51.577 273.335 52.5118 273.129C55.6407 274.755 59.5823 275.276 62.9548 274.863C74.4522 271.607 70.4461 279.448 86.5665 277.047C114.392 273.501 142.512 280.469 170.279 276.378C170.963 281.662 179.915 280.146 183.025 277.912C192.349 270.978 196.978 249.024 201.658 237.887C204.874 229.109 210.26 213.561 217.314 207.671C219.429 206.016 221.985 205.145 224.543 204.441C234.09 201.98 243.674 199.653 253.239 197.26C254.861 196.861 254.569 194.093 252.835 194.271C250.533 194.506 248.223 194.72 245.913 194.942Z" fill="white"/>
<path fill-rule="evenodd" clip-rule="evenodd" d="M33.3901 193.296C32.7436 193.216 32.1098 192.985 31.4802 192.803C30.5189 192.522 29.5767 192.195 28.6492 191.821C26.7351 191.054 24.8781 190.147 23.1372 189.037C20.3253 187.243 17.8408 184.943 15.9668 182.175L15.8382 181.982C14.7683 180.351 12.7949 176.732 15.0077 175.494C13.5815 174.302 12.2337 172.161 12.3097 170.508C12.4175 168.171 15.2822 168.202 16.7632 169.193C17.733 169.842 18.4597 170.751 19.1886 171.645C19.9956 172.638 20.8576 173.585 21.7534 174.496C21.9911 174.737 22.2311 174.973 22.4753 175.206L22.721 175.437C22.683 175.346 22.6492 175.253 22.6196 175.158C22.1252 173.617 22.7146 171.611 24.2548 170.905C25.1973 170.473 26.1761 170.737 27.0895 171.104L27.2294 171.161C28.459 171.67 29.7034 172.121 30.9837 172.482C36.202 173.955 41.6484 174.2 46.9956 174.936C49.0555 175.221 51.1534 175.58 53.2027 176.109C53.9843 172.788 55.9005 169.606 57.9794 166.987C67.9343 154.46 84.3519 150.32 99.3709 147.64C100.74 147.397 101.875 149.21 102.671 148.781C104.182 147.97 105.51 146.82 106.677 145.571C109.163 142.906 110.927 139.771 113 136.802C114.025 135.335 116.382 136.648 115.432 138.222L114.966 138.992C113.048 142.144 110.925 145.392 108.175 147.837C106.713 149.134 105.09 150.159 103.235 150.799C101.83 151.284 99.8591 151.692 98.321 151.222L98.1364 150.953C98.1975 151.043 98.2591 151.133 98.321 151.222C102.335 157.041 107.372 161.965 112.679 166.613C118.036 171.301 123.814 175.5 129.628 179.605L130.112 179.947C139.584 173.036 147.584 164.022 153.198 153.723C152.021 153.581 150.857 152.827 149.851 152.264C148.641 151.584 147.502 150.772 146.615 149.69C144.682 147.334 144.933 144.296 144.584 141.437C144.563 141.259 144.798 141.215 144.906 141.304C145.953 142.174 146.321 143.601 146.758 144.833C147.24 146.188 147.785 147.304 148.89 148.257C149.919 149.145 151.174 149.798 152.393 150.379C153.022 150.677 156.142 151.444 156.498 152.078C161.889 150.812 167.141 153 171.137 156.69C174.996 160.256 177.829 164.89 180.331 169.466C182.999 174.348 185.186 179.437 187.07 184.668C188.98 189.978 190.444 195.403 191.249 200.991C191.929 205.702 192.345 210.488 192.615 215.252L192.648 215.847C196.636 209.585 200.724 203.388 204.897 197.246C203.948 194.712 204.998 192.125 206.775 190.168C208.744 188.002 211.467 186.996 214.072 185.825L214.415 185.67C215.67 185.097 216.922 184.466 218.006 183.608C219.05 182.779 219.817 181.638 220.915 180.875C222.513 179.763 225.411 180 225.485 182.428C225.523 183.762 224.951 185.224 224.427 186.423C223.833 187.778 223.032 189.005 222.082 190.134C222.038 190.187 221.99 190.228 221.941 190.261L221.904 190.284C223.218 190.502 224.543 190.677 225.893 190.739C228.616 190.863 231.369 190.662 234.035 190.088C236.765 189.5 239.41 188.545 241.865 187.213C243.963 186.076 245.906 184.605 248.289 184.259C248.509 184.225 248.731 184.204 248.959 184.191C249.339 184.17 249.72 184.618 249.57 184.994C249.487 185.201 249.401 185.406 249.305 185.613C248.482 187.429 247.218 189.19 245.641 190.527L245.52 190.629C246.075 190.436 246.622 190.221 247.161 189.978C250.328 188.551 253.201 186.395 256.596 185.529C256.757 185.486 256.92 185.448 257.082 185.413C258.132 185.186 258.686 186.328 258.069 187.11C257.97 187.236 257.87 187.361 257.767 187.486C256.252 189.367 254.581 191.113 252.739 192.681C252.107 193.218 251.456 193.738 250.793 194.234C250.513 194.445 250.232 194.651 249.948 194.854L249.808 194.953C250.14 194.718 250.468 194.48 250.793 194.234C252.872 193.604 254.921 192.858 256.926 192.032C257.722 191.704 258.341 192.512 258.426 193.175C258.709 195.399 256.241 197.007 254.636 198.077C253.026 199.15 251.253 199.966 249.439 200.621C245.949 201.883 242.284 202.456 238.625 202.969L236.848 203.217C229.814 204.201 222.466 205.377 217.419 210.853C214.59 213.921 212.676 217.734 210.924 221.486C209.175 225.233 207.639 229.08 206.182 232.947C204.671 236.95 203.355 241.027 201.956 245.07C200.672 248.783 199.137 252.448 197.618 256.076L197.378 256.648C194.152 264.358 190.298 271.62 184.928 278.058C184.043 279.121 182.613 277.612 183.43 276.559C189.048 269.314 192.956 260.765 196.182 252.237C197.651 248.357 198.88 244.383 200.291 240.482L201.131 238.164C202.252 235.074 203.383 231.989 204.563 228.923C206.057 225.045 207.698 221.213 209.577 217.506L209.776 217.116C211.615 213.539 213.799 210.015 216.806 207.308C222.218 202.435 229.42 201.266 236.383 200.34L238.574 200.051C241.517 199.66 244.47 199.228 247.332 198.44C248.984 197.988 250.598 197.409 252.115 196.61C252.72 196.293 253.309 195.944 253.879 195.564C252.253 196.041 250.603 196.432 248.923 196.739C248.101 196.889 247.288 197.001 246.477 197.079C244.387 197.286 242.315 197.278 240.175 197.166C239.993 197.155 239.934 196.87 240.128 196.834C241.618 196.569 243.111 196.237 244.597 195.878L245.042 195.769C245.051 195.522 245.148 195.259 245.351 195.01C246.09 194.11 247.495 193.649 248.469 193.013C249.489 192.347 250.478 191.628 251.42 190.859C252.282 190.155 253.11 189.411 253.907 188.634L254.146 188.399C254.066 188.477 253.987 188.556 253.907 188.634C251.756 189.627 249.718 190.901 247.472 191.688C245.687 192.315 243.815 192.738 241.926 192.888L241.809 192.897L241.691 192.905C239.72 193.047 237.737 192.989 235.795 193.416C235.577 193.465 235.51 193.173 235.704 193.091C237.401 192.385 239.165 192.112 240.948 191.783C240.986 191.643 241.083 191.518 241.252 191.438L241.708 191.22C243.067 190.567 244.333 189.909 245.463 188.849C246.46 187.913 247.29 186.818 247.913 185.605C245.418 186.152 243.227 188.044 240.958 189.107C238.486 190.267 235.871 191.1 233.184 191.574L232.877 191.626C227.856 192.464 221.816 192.357 217.317 189.745C217.174 189.661 217.277 189.469 217.425 189.492C218.701 189.701 219.965 189.948 221.228 190.168C220.981 189.942 220.871 189.536 221.156 189.21C222.291 187.91 223.188 186.423 223.762 184.796L223.872 184.478C224.136 183.723 224.582 182.551 224.127 181.87C223.691 181.221 222.667 181.31 222.054 181.585C220.78 182.16 219.933 183.595 218.86 184.461C217.689 185.408 216.358 186.11 214.996 186.738L214.708 186.868C212.351 187.929 209.833 188.822 207.979 190.694C206.982 191.7 206.124 192.958 205.837 194.367C205.706 195.014 205.706 195.68 205.879 196.32C206.017 196.821 206.304 197.13 206.139 197.639C205.924 198.296 205.161 199.083 204.768 199.668C204.312 200.345 203.858 201.023 203.403 201.701C202.497 203.058 201.595 204.419 200.693 205.778C198.889 208.5 197.103 211.235 195.333 213.979C194.757 214.872 194.183 215.766 193.61 216.661L192.753 218.005L192.301 218.713L191.528 219.928C191.556 220.04 191.553 220.159 191.517 220.262C191.386 220.637 191.139 220.894 190.833 221.08L190.778 221.112C186.27 228.241 181.833 235.416 177.352 242.562C177.113 244.743 176.889 246.926 176.695 249.109C176.253 254.051 175.951 259.005 175.854 263.965C175.808 266.366 176 268.782 176.103 271.181C176.154 272.325 176.223 273.469 176.314 274.612L176.381 275.422C176.47 276.536 176.521 277.641 176.12 278.703C175.765 279.635 174.684 279.844 174.044 279.134C165.692 278.798 157.334 278.542 148.977 278.383C134.017 278.096 119.051 278.14 104.089 278.43C96.5738 278.576 89.0569 278.781 81.5442 279.034C77.8428 279.157 74.1393 279.33 70.4358 279.381C68.4404 279.408 65.3 278.681 65.139 276.436L65.1351 276.367C64.8858 276.435 64.628 276.49 64.3639 276.53C64.2464 276.548 64.1334 276.543 64.0291 276.518L63.9773 276.505C61.0029 277.411 57.2405 276.117 54.4142 275.363L54.1809 275.302C51.483 274.598 49.3154 273.592 47.5471 271.356C44.452 267.44 43.3957 262.181 42.8464 257.335C42.3309 252.774 42.3013 248.129 42.9288 243.576C42.559 239.867 42.9203 236.04 43.3407 232.351C43.5478 230.527 43.7907 228.705 44.0823 226.892C44.2449 225.88 44.4583 224.878 44.6759 223.878C44.7628 223.479 44.8351 223.049 44.9453 222.633L44.9949 222.456C44.6569 222.5 44.2872 222.426 43.9301 222.23C43.0808 221.763 42.8337 220.818 42.8189 219.913C42.7724 217.187 43.0977 214.382 43.3851 211.673C43.6745 208.968 44.0717 206.252 44.5914 203.58L44.7259 202.891C45.1197 200.893 45.5703 198.83 46.3639 196.952C43.383 196.445 40.4105 195.906 37.5182 194.989C36.107 194.539 34.7168 193.979 33.3901 193.296ZM188.98 221.67C188.934 221.68 188.889 221.693 188.845 221.706C187.653 222.04 186.449 222.323 185.249 222.627C183.175 223.149 181.146 223.732 179.217 224.639C178.813 229.741 178.214 234.827 177.645 239.915L177.532 240.932C178.406 239.309 179.302 237.698 180.238 236.107C183.088 231.257 186.003 226.444 188.98 221.67ZM45.7217 222.175C45.728 222.781 45.6013 223.411 45.5337 223.994C45.4238 224.942 45.3351 225.893 45.2231 226.839C44.9949 228.741 44.8006 230.646 44.659 232.556C44.5682 233.776 44.509 235 44.4562 236.223C45.6541 231.745 47.2407 227.364 48.7492 222.976C48.4971 222.949 48.2393 222.888 47.9734 222.817L47.5258 222.696C47.2619 222.628 46.4057 222.418 45.7217 222.175ZM192.753 218.005L192.762 218.206C192.794 218.918 192.367 219.32 191.849 219.423C192.149 218.95 192.451 218.476 192.753 218.005ZM55.683 184.248C56.9442 184.36 58.1801 184.629 59.359 185.094L59.4728 185.138C60.3447 185.475 61.6196 185.898 61.9048 186.829C61.9851 187.093 61.7696 187.31 61.5224 187.332C60.5759 187.408 59.4604 186.393 58.5837 186.051C57.6076 185.67 56.5851 185.387 55.5499 185.237C53.2238 184.897 50.7984 185.155 48.6097 186.002C48.4808 186.053 48.4006 185.848 48.5168 185.787C50.7224 184.586 53.1752 184.026 55.683 184.248ZM28.9556 190.293C28.8097 190.164 28.6639 190.028 28.5203 189.893C27.3876 188.821 26.3845 187.57 25.6418 186.196L25.4464 185.823C24.8415 184.652 24.0987 182.983 25.5203 182.139C26.3696 181.634 27.3921 181.76 28.3386 182.067C28.3998 182.086 28.4611 182.107 28.5224 182.128C28.9449 182.276 29.3526 182.454 29.716 182.623C31.2942 183.348 32.6865 184.402 34.1442 185.332C35.7237 186.34 37.2834 186.985 39.1063 187.362L39.278 187.397C40.9893 187.735 42.8442 187.953 44.0379 189.36C44.3379 189.716 44.0632 190.381 43.5456 190.206C40.2456 189.092 36.7534 188.847 33.7238 187.019C32.4688 186.262 31.2815 185.394 29.9991 184.677C29.3188 184.296 28.6165 183.963 27.868 183.735L27.4591 183.615C27.2196 183.545 26.9336 183.476 26.7414 183.544C26.3754 183.671 26.4922 183.867 26.6054 184.209L26.6167 184.244C27.5062 186.996 30.0414 189.299 32.3907 190.823C32.9294 191.174 33.4808 191.495 34.0428 191.793C37.8468 193.822 42.1031 194.766 46.2835 195.886C47.8949 196.336 48.9675 196.646 49.5013 196.815C50.3929 196.741 51.4091 197.056 52.0809 197.432C52.7337 197.798 53.2598 198.288 53.6569 198.865C53.6569 198.865 54.0393 199.184 54.1091 199.679C54.3098 200.137 54.445 200.632 54.5126 201.148C54.5506 201.45 54.4745 201.682 54.3309 201.847C54.763 208.482 52.9716 215.079 50.9519 221.385L50.7517 222.007L50.6231 222.401C48.445 229.086 45.9457 235.722 44.8302 242.693C44.0844 247.349 44.1076 252.167 44.6548 256.845L44.6934 257.167C45.2325 261.589 46.2699 266.55 49.0809 270.109C50.5147 271.925 52.2134 272.733 54.3852 273.317L54.5041 273.349C56.4689 273.867 58.4971 274.6 60.5231 274.822C62.4034 275.027 63.9795 274.328 65.6717 273.672L65.6738 273.67C69.2379 270.515 70.8562 265.92 72.052 261.283C75.1513 249.283 74.7668 236.826 73.009 224.65C72.0921 218.288 70.8457 211.981 69.6034 205.677C68.9823 202.526 68.3126 199.381 67.7569 196.219L67.4269 194.358C67.2448 193.324 67.0687 192.29 66.9182 191.25C66.7154 189.853 66.6541 188.479 66.5844 187.074C64.8773 184.244 62.3992 181.913 59.528 180.241C57.4724 179.042 55.2964 178.212 53.0506 177.61C46.6301 175.879 39.6308 176.001 33.1703 174.67C30.9999 174.223 28.9397 173.559 26.8806 172.765L26.5999 172.655C25.6555 172.288 24.6921 172.083 24.2231 173.197C23.8893 173.989 24.0879 174.813 24.5886 175.479C25.8161 177.111 28.2837 177.867 30.1407 178.455C31.2583 178.81 32.3992 179.091 33.5527 179.3C34.7062 179.51 35.8639 179.562 36.971 179.97C37.3977 180.127 37.4822 180.805 36.971 180.925C35.5682 181.253 34.1569 180.972 32.7625 180.699C31.2308 180.397 29.7224 179.968 28.2562 179.425C27.9858 179.325 27.7059 179.22 27.4209 179.108L27.2062 179.023C27.428 179.184 27.6499 179.343 27.8738 179.501C27.933 179.543 27.897 179.655 27.8189 179.628C24.3714 178.341 21.2346 176.02 18.8046 173.273L18.6837 173.135C17.828 172.154 15.878 169.187 14.2344 170.013C12.6909 170.789 15.3219 173.776 16.3218 174.998L16.4379 175.141C17.5745 175.171 18.6752 175.878 19.5964 176.449C21.1957 177.441 22.8668 178.294 24.5696 179.093C27.9541 180.685 31.5478 181.807 34.8964 183.479C34.9407 183.502 34.9069 183.559 34.8647 183.553C32.733 183.212 30.6245 182.669 28.5647 181.995L28.4728 181.966L28.3809 181.936C27.0943 181.513 25.8245 181.036 24.576 180.526C23.1879 179.96 21.8316 179.324 20.5154 178.603C19.3238 177.952 18.0013 176.779 16.6196 176.606C16.4717 176.587 16.3407 176.584 16.2267 176.595C14.6401 176.728 15.952 179.357 16.3957 180.144C17.1203 181.435 17.995 182.627 18.9985 183.715C21.033 185.926 23.4985 187.678 26.1668 189.041C27.0774 189.506 28.0091 189.916 28.9556 190.293Z" fill="black"/>
<path fill-rule="evenodd" clip-rule="evenodd" d="M130.311 50.4512C139.77 50.4512 151.119 55.0384 152.084 55.1302L152.11 55.1316C152.618 55.1316 154.601 56.6434 158.061 59.6671L154.314 66.9785L154.617 67.2682C156.068 68.66 157.307 69.9286 158.285 70.9287C166.269 79.094 167.704 111.154 165.822 122.334C163.941 133.514 160.456 144.454 144.231 144.454C128.006 144.454 109.955 134.695 107.174 131.655C105.32 129.629 103.238 128.659 100.928 128.743C100.833 128.623 100.738 128.504 100.645 128.385L100.305 128.337C97.1069 127.873 94.8155 127.25 93.4307 126.466C90.7258 124.935 87.7528 116.887 87.7528 115.114C87.7528 113.359 83.3135 100.591 83.2247 99.2394L83.2234 99.202C83.2234 98.0725 77.4238 92.8801 77.4238 91.2311C77.4238 89.5821 76.2549 89.6822 77.4238 83.8714L77.7635 82.1643C79.0075 75.9776 81.4423 65.7332 90.7258 61.2816C100.928 56.3899 120.757 50.4512 130.311 50.4512Z" fill="white"/>
<path fill-rule="evenodd" clip-rule="evenodd" d="M89.1511 61.0517C94.239 55.6492 123.124 47.2929 137.738 49.0642L138.176 49.121C139.342 49.2689 140.491 49.493 141.626 49.7973C145.292 50.6539 149.079 51.951 152.109 54.1175C154.638 55.8899 162.616 58.7844 160.264 63.421C161.136 65.0735 161.462 67.1152 160.872 68.7428C160.798 69.305 160.625 69.8228 160.403 70.3596C162.266 73.1095 163.741 76.2193 164.935 79.1771C167.021 86.6211 168.319 94.3679 168.51 101.963C169.142 116.392 167.561 133.628 154.998 142.959C147.409 148.871 135.522 149.07 126.993 141.739C126.509 141.166 124.233 139.62 124.993 139.349C125.219 139.587 125.451 139.82 125.688 140.048C125.677 140.023 125.675 139.997 125.68 139.97L125.457 139.768C125.038 139.38 124.495 138.818 125.113 138.928C125.141 138.96 125.17 138.987 125.2 139.019C125.331 139.097 125.43 139.166 125.507 139.226L125.546 139.257L125.534 139.245C125.178 138.865 124.964 138.477 125.497 138.725L125.567 138.759C125.804 139.008 126.045 139.247 126.29 139.48C126.286 139.452 126.29 139.425 126.305 139.395L126.076 139.174C125.853 138.956 125.887 138.955 125.996 138.778C125.522 138.113 126.407 138.508 126.469 138.767C127.023 138.636 127.509 139.676 127.866 139.803C143.5 151.827 166.187 141.158 165.82 107.654L165.814 106.998C165.706 96.2849 164.805 85.2736 160.376 75.5757C159.945 74.6415 159.463 73.7327 158.933 72.8535C158.568 72.1941 158.177 71.5516 157.756 70.926C156.579 70.8309 155.417 70.6153 154.272 70.2814C153.879 70.1821 153.491 70.0722 153.102 69.9432C147.423 70.2531 141.871 70.5902 136.176 70.9097L134.397 71.0206C129.573 71.3308 124.584 71.8278 120.691 74.8127C116.872 77.5303 116.854 82.8891 113.584 85.8727C108.922 89.0385 108.888 91.8932 107.99 96.5586C108.056 100.075 110.494 105.185 106.021 106.665C106.775 107.742 105.724 107.225 105.641 106.847C105.632 106.849 105.624 106.851 105.618 106.851C106.29 108.102 105.301 107.314 105.214 106.913C105.161 106.898 105.108 106.86 105.056 106.807C105.733 107.903 104.638 107.135 104.703 106.936C103.394 104.923 100.699 104.61 98.7997 105.144C98.7765 105.215 98.6922 105.222 98.6394 105.184C90.5632 106.935 92.647 123.66 100.923 122.043C101.277 121.971 101.269 122.141 101.339 122.157C101.148 121.655 101.687 121.86 101.681 121.965L101.714 121.963C101.74 121.961 101.73 121.958 101.749 121.965C101.564 120.938 102.604 122.426 102.522 122.487C102.554 122.468 102.59 122.457 102.622 122.453L102.586 122.356C102.413 121.896 102.428 122.087 102.429 121.823C102.3 121.498 102.29 121.64 102.32 121.428C102.776 121.075 102.911 122.147 103.063 122.225C102.802 121.861 103.01 121.564 103.256 121.762C105.12 125.684 107.527 129.369 110.639 132.273C110.98 132.541 111.324 132.805 111.681 133.055C113.004 134.208 115.035 134.95 116.274 135.971C116.274 135.988 116.265 136.009 116.253 136.03L116.281 136.056L116.31 136.083L116.741 136.29C116.868 136.398 116.982 136.519 117.083 136.652C117.191 136.776 117.286 136.914 117.366 137.06C117.406 137.237 117.318 137.311 117.149 137.235C117.074 137.21 117.001 137.18 116.927 137.153C116.931 137.159 116.933 137.163 116.937 137.167C116.961 137.204 117.126 137.585 116.937 137.523L116.914 137.514C116.81 137.476 116.707 137.434 116.606 137.394C116.726 137.544 116.836 137.706 116.933 137.844C117.037 137.952 117.1 138.078 117.125 138.222C117.121 138.302 117.077 138.336 116.996 138.326C116.874 138.285 116.753 138.243 116.633 138.199L116.667 138.264C116.752 138.432 116.873 138.713 116.658 138.619C116.474 138.562 116.297 138.497 116.12 138.425C116.105 138.455 116.075 138.465 116.016 138.438C115.452 138.237 114.907 137.992 114.385 137.702C113.927 137.368 113.464 137.041 113.003 136.709C112.57 136.449 112.152 136.159 111.753 135.834C109.081 134.107 106.742 131.915 104.887 129.472C101.783 132.161 95.5785 129.592 91.7404 127.488C88.3456 125.607 87.0112 122.129 86.6662 118.379C85.9489 113.33 81.825 111.602 82.1119 100.526C82.1056 100.528 82.099 100.528 82.0906 100.528C81.9406 100.483 81.795 100.424 81.6577 100.348C81.5161 100.28 81.383 100.2 81.2582 100.103L81.1039 99.8895C81.0239 99.8451 80.952 99.7986 80.8971 99.7521L80.8686 99.7888C80.7784 99.8977 80.8391 99.7339 80.8443 99.7014L80.5764 99.3369C79.9411 98.4692 79.2442 97.4956 78.6765 96.7171L78.6586 96.7487C78.6458 96.7726 78.639 96.7899 78.645 96.7974C77.2939 94.8555 76.0234 92.5099 75.6703 90.2392C75.2535 88.4901 75.4164 86.6877 75.78 85.0675C77.3389 79.3938 82.4457 66.5547 89.1511 61.0517ZM125.816 139.516L125.731 139.441L125.806 139.534C125.845 139.582 125.885 139.626 125.95 139.67C125.946 139.655 125.946 139.64 125.948 139.623C125.904 139.59 125.86 139.554 125.816 139.516ZM137.673 51.9151C127.763 51.0627 118.016 53.2468 108.559 55.8906L107.906 56.0781C102.529 57.6131 96.8434 58.9943 92.2992 62.2797C85.9504 67.1443 82.672 74.8831 79.811 82.0282C77.3127 87.3369 78.5899 93.323 82.3546 97.0299C82.7463 93.3463 83.4142 89.7704 84.4578 86.2233C84.6756 85.6692 84.5108 85.4876 84.9803 85.4153C85.6893 94.9743 82.1972 102.037 89.1078 113.366C92.1063 118.711 88.6352 122.622 97.1028 125.435L97.332 125.523C99.0961 126.189 101.023 126.714 102.75 126.342L102.596 126.09C102.438 125.831 102.39 125.705 102.619 125.594C102.613 125.581 102.605 125.569 102.596 125.554C102.41 125.203 102.231 124.848 102.06 124.489C101.99 124.512 101.92 124.529 101.848 124.548C101.895 124.634 101.901 124.721 101.77 124.751C101.305 124.91 100.827 124.974 100.337 124.944L100.232 124.937C99.6794 124.903 99.3311 124.802 99.0194 124.708C98.9161 124.691 98.8126 124.675 98.711 124.653C97.7085 124.431 96.6473 123.865 95.9605 123.305C88.1313 118.856 88.9405 103.713 98.5908 102.282C98.7887 92.7475 103.322 76.6621 110.845 67.5767C117.645 59.2197 136.21 55.5976 149.126 56.8748C149.315 56.9372 149.503 57.0001 149.691 57.0638C151.684 57.2409 153.583 58.129 155.577 58.5415C154.145 57.4681 152.521 56.7531 150.848 56.1454C147.515 54.1057 143.693 53.002 140.001 52.2236C139.237 52.0355 138.461 51.932 137.673 51.9151ZM98.1491 109.941C98.6679 109.659 98.6086 109.932 98.7279 109.852C102.46 109.548 106.485 112.817 108.571 115.542C108.406 115.713 107.96 115.206 107.882 115.126C107.872 115.136 107.859 115.145 107.846 115.149L107.904 115.231C108.75 116.445 107.074 115.016 106.917 114.722C106.889 114.737 106.862 114.745 106.83 114.739C106.963 114.869 107.369 115.209 107.439 115.451L107.546 115.541C108.561 116.41 108.476 117.064 107.325 115.829C107.352 115.887 107.362 115.939 107.343 115.982L107.383 116.008C107.95 116.404 108.415 117.508 107.231 116.375C107.355 117.202 106.058 115.603 106.017 115.614C103.773 113.852 100.471 112.139 97.6568 111.909L97.56 111.898C97.0436 111.831 96.7995 111.678 96.9808 111.34C96.3448 111.189 96.4938 110.876 96.7948 110.886C96.3463 110.591 96.7501 110.309 97.0103 110.419C96.8314 109.923 97.5491 110.253 97.6146 110.184C97.987 109.61 98.0874 110.089 98.1491 109.941ZM90.3259 79.2215C92.1185 78.5646 97.4135 80.531 96.9899 83.1353C96.7376 83.7332 95.9065 84.0758 95.3223 83.7383L94.5599 83.226C93.2331 82.3371 92.0364 81.5576 90.6119 80.7823C89.8366 80.3974 89.5028 79.5804 90.3259 79.2215ZM100.525 75.3514L99.8325 74.9007C96.0964 72.4546 90.8149 68.7482 100.181 72.5829C101.249 73.0409 102.667 73.3119 103.25 74.3289C104.165 76.2034 101.757 76.3293 100.525 75.3514ZM100.945 64.3762C100.645 63.2381 104.375 64.5736 105.461 64.9257L105.626 64.9882C106.683 65.382 107.894 65.7473 108.526 66.6592C109.266 67.9193 107.767 68.1803 106.839 67.6111C104.937 66.3671 102.85 65.4285 100.945 64.3762ZM110.431 59.0745C108.331 56.7806 113.95 58.9781 114.792 59.5881L114.816 59.606C115.444 60.0484 115.317 61.0012 114.727 61.281C113.048 61.3129 111.812 59.9129 110.431 59.0745ZM119.985 56.5613C116.647 54.1614 121.044 55.3029 122.572 56.2434C123.613 57.1617 122.54 58.712 119.985 56.5613Z" fill="black"/>
<path fill-rule="evenodd" clip-rule="evenodd" d="M152.125 125.776C153.46 125.465 154.509 126.596 154.246 127.899C153.969 129.278 152.487 129.75 151.244 129.707C149.835 129.658 148.427 129.367 147.011 129.309C145.557 129.248 144.096 129.238 142.641 129.277C141.295 129.313 139.913 129.551 138.578 129.337C138.057 129.254 138.107 128.568 138.445 128.323C139.45 127.598 140.752 127.303 141.936 126.999C143.144 126.689 144.379 126.451 145.617 126.306C146.873 126.159 148.138 126.086 149.402 126.071C149.978 126.065 150.683 126.193 151.244 126.089C151.53 126.036 151.821 125.847 152.125 125.776ZM148.27 107.866C149.866 108.836 152.296 111.098 150.58 113.503C148.56 115.624 145.651 113.192 144.218 112.093C142.889 111.24 141.396 113.432 142.629 114.427C152.986 122.098 157.189 108.119 149.077 106.725C148.184 106.572 147.852 107.566 148.27 107.866ZM136.702 100.622C138.836 100.267 139.21 103.31 137.095 103.523C136.651 103.567 136.209 103.606 135.769 103.645C135.812 103.783 135.84 103.924 135.856 104.07C135.876 104.194 135.891 104.326 135.904 104.476C135.971 105.225 135.441 106.003 134.821 106.366C134.176 106.744 133.251 106.794 132.611 106.366C132.281 106.146 131.952 105.897 131.77 105.532C131.526 105.157 131.393 104.724 131.379 104.279C130.406 104.531 129.416 104.873 128.433 105.054C128.469 105.09 128.505 105.128 128.539 105.169C128.565 105.201 128.529 105.261 128.491 105.232L127.998 105.122C127.847 105.142 127.695 105.158 127.544 105.168L127.547 105.155C127.294 105.15 127.087 104.851 127.314 104.612C128.182 103.694 129.536 103.084 130.771 102.574L131.961 102.086C133.483 101.467 135.089 100.89 136.702 100.622ZM153.87 101.563C155.268 101.404 156.652 101.467 158.052 101.552C160.408 101.696 159.42 105.133 157.528 104.34C157.548 104.465 157.553 104.591 157.538 104.709C157.464 105.313 157.268 105.824 156.713 106.148C156.198 106.45 155.546 106.449 155.031 106.148C154.479 105.826 154.231 105.373 154.09 104.784C153.981 104.327 154.025 103.945 154.088 103.493C154.109 103.343 154.174 103.203 154.264 103.078C154.133 103.045 154.001 103.013 153.868 102.983C152.692 102.716 151.532 102.769 150.36 102.6C150.235 102.582 150.215 102.38 150.324 102.328C151.378 101.833 152.717 101.695 153.87 101.563ZM136.487 90.9468C137.293 90.6389 138.307 91.151 138.718 91.8554C139.186 92.6547 138.986 93.5775 138.409 94.2511C137.525 95.2843 135.84 95.9209 134.598 96.5105L134.498 96.5582C133.223 97.1736 131.913 97.7388 130.585 98.2312C129.279 98.7158 127.921 99.0954 126.567 99.4213C125.853 99.5932 125.124 99.7352 124.395 99.8248C123.819 99.8954 123.375 99.7373 122.824 99.7373C122.743 99.7375 122.718 99.6308 122.784 99.5898C123.298 99.266 123.681 98.8397 124.242 98.5398C124.827 98.2276 125.414 97.9207 126.003 97.6168C127.194 97.0026 128.341 96.3191 129.489 95.6312C130.7 94.906 131.884 94.1424 133.035 93.3249C134.161 92.525 135.199 91.4382 136.487 90.9468ZM150.861 90.2891C151.868 90.0936 152.866 90.5704 153.164 91.5974C153.45 92.5812 153.151 92.7921 153.913 93.4961C154.521 94.0572 155.176 94.558 155.838 95.0511L156.811 95.775C158.574 97.0806 160.352 98.3151 162.379 99.196C162.55 99.2704 162.451 99.5251 162.289 99.5285C159.066 99.5906 155.976 99.1542 153.067 97.7109C151.708 97.0367 150.343 96.1839 149.556 94.838C148.644 93.2795 148.67 90.7139 150.861 90.2891Z" fill="black"/>
</svg>
